PathFileType	4	(X/Y/Z)	s11c0203.trc
DataRate	CameraRate	NumFrames	NumMarkers	Units	OrigDataRate	OrigDataStartFrame	OrigNumFrames
200	200	4	48	mm	200	250	2000
Frame#	Time	racr			lacr			c7			jug			rlel			rdr			llel			ldr			s2			lic			ric			lasi			rasi			rpsi			lpsi			rgt			lgt			rth1			rth2			rth3			rth4			rlfc			rmfc			rsh1			rsh2			rsh3			rsh4			rlmal			rcal			rtoe			rmt5			lth1			lth2			lth4			lth3			llfc			lmfc			llmal			lcal			lmt5			lsh1			lsh2			lsh3			lsh4			ltoe			SBIKE			LBIKE			RBIKE			
		X1	Y1	Z1	X2	Y2	Z2	X3	Y3	Z3	X4	Y4	Z4	X5	Y5	Z5	X6	Y6	Z6	X7	Y7	Z7	X8	Y8	Z8	X9	Y9	Z9	X10	Y10	Z10	X11	Y11	Z11	X12	Y12	Z12	X13	Y13	Z13	X14	Y14	Z14	X15	Y15	Z15	X16	Y16	Z16	X17	Y17	Z17	X18	Y18	Z18	X19	Y19	Z19	X20	Y20	Z20	X21	Y21	Z21	X22	Y22	Z22	X23	Y23	Z23	X24	Y24	Z24	X25	Y25	Z25	X26	Y26	Z26	X27	Y27	Z27	X28	Y28	Z28	X29	Y29	Z29	X30	Y30	Z30	X31	Y31	Z31	X32	Y32	Z32	X33	Y33	Z33	X34	Y34	Z34	X35	Y35	Z35	X36	Y36	Z36	X37	Y37	Z37	X38	Y38	Z38	X39	Y39	Z39	X40	Y40	Z40	X41	Y41	Z41	X42	Y42	Z42	X43	Y43	Z43	X44	Y44	Z44	X45	Y45	Z45	X46	Y46	Z46	X47	Y47	Z47	X48	Y48	Z48	
250	1.2500	417.633494	1414.441860	-108.592412	409.742411	1418.744229	-418.009392	324.223284	1533.060356	-263.770346	364.231306	1362.637086	-267.214102	561.441375	1180.584239	-53.651889	777.966858	964.102869	-87.067142	533.200620	1152.711890	-491.066466	777.628082	944.246229	-453.377013	-177.177990	1189.497495	-273.312299	44.181708	1221.055190	-463.768246	36.823532	1226.263437	-68.002563	87.913270	1153.354075	-427.875960	75.769387	1162.955703	-101.615146	-150.985495	1273.068743	-217.301057	-139.835557	1263.215083	-310.797052	-3.295612	1083.434517	-43.137259	-36.560831	1078.580861	-477.401199	114.050745	996.623598	-45.277388	197.149997	966.450217	-59.533891	251.948903	899.717233	-74.877464	215.625840	996.102635	-72.855173	336.530214	830.963441	-95.822163	339.916028	811.240508	-222.228172	317.217748	669.090708	-78.447175	330.969061	583.224743	-94.440767	301.390302	500.885877	-94.625999	355.628861	583.649179	-125.916876	279.406096	367.171350	-105.809553	219.798837	337.572870	-152.589623	506.857847	344.263392	-150.839710	442.151740	307.994203	-80.879640	77.932804	984.334692	-497.764585	156.608465	950.126537	-496.852822	180.507599	977.622968	-488.731873	209.405893	877.184037	-495.455384	301.615055	778.411401	-474.157104	322.487118	773.858716	-345.625600	-6.549634	485.479275	-417.461569	-74.741478	465.478034	-375.034734	91.885914	347.528739	-452.101989	210.038641	693.721572	-482.218761	171.576301	619.966789	-462.184066	97.971366	572.262901	-449.238914	197.359921	601.852540	-438.959374	192.450899	334.500954	-389.110937	-217.093382	948.810133	-256.659788	-18.050565	80.851233	-460.733227	-18.012178	80.825150	-61.996418	
251	1.2550	417.667977	1414.474037	-108.571265	409.678791	1418.704564	-417.971785	324.103856	1533.132400	-263.799251	364.159708	1362.701039	-267.182141	561.483815	1180.648227	-53.609942	777.954410	964.077130	-87.115111	533.126239	1152.630349	-491.030404	777.635078	944.254471	-453.358670	-177.231911	1189.493383	-273.230410	44.085877	1221.103066	-463.584393	36.751802	1226.278805	-67.900246	87.879444	1153.469014	-427.784629	75.717197	1163.019031	-101.552049	-151.048970	1273.054529	-217.175333	-139.889157	1263.216406	-310.696838	-3.297140	1083.446867	-43.095927	-36.618352	1078.626382	-477.333779	114.096942	996.724123	-45.277383	197.221084	966.639990	-59.494287	252.095880	899.949493	-74.818488	215.643700	996.283646	-72.825554	336.710880	831.301802	-95.756587	340.191589	811.520193	-222.186733	317.412993	669.396684	-78.374679	331.124606	583.530315	-94.414297	301.543845	501.148355	-94.626924	355.778429	583.913332	-125.883438	279.483878	367.488059	-105.819040	219.840114	337.851086	-152.575641	506.901095	344.459313	-150.866837	442.222416	308.209118	-80.894368	77.870394	984.340505	-497.742610	156.509466	950.095429	-496.829410	180.425730	977.535794	-488.683446	209.270722	877.092408	-495.406646	301.376835	778.290593	-474.127554	322.183331	773.660680	-345.654203	-6.657741	485.208667	-417.499536	-74.839814	465.132277	-375.041601	91.826045	347.277185	-452.065975	209.844323	693.521232	-482.260558	171.409730	619.778863	-462.166186	97.785979	572.032131	-449.202205	197.205216	601.581540	-438.907462	192.407979	334.318887	-389.119638	-217.107051	948.801419	-256.655738	-18.029213	80.896820	-460.770408	-18.023561	80.833209	-61.995632	
252	1.2600	417.698754	1414.547447	-108.487437	409.594348	1418.614546	-417.951403	324.008644	1533.181028	-263.786382	364.148556	1362.780599	-267.120145	561.533256	1180.698572	-53.630142	777.957014	964.062638	-87.140552	533.042756	1152.568426	-490.969474	777.656472	944.254086	-453.381826	-177.282908	1189.487523	-273.124507	44.048506	1221.179508	-463.435602	36.689379	1226.310616	-67.808643	87.837843	1153.558201	-427.621381	75.697148	1163.089699	-101.484368	-151.149957	1273.071116	-217.038088	-139.939202	1263.227572	-310.574174	-3.297160	1083.446975	-43.029180	-36.636603	1078.689494	-477.227310	114.133419	996.881022	-45.230798	197.280740	966.833220	-59.443154	252.221408	900.237967	-74.759141	215.715600	996.508638	-72.767661	336.889281	831.574391	-95.684329	340.482498	811.919352	-222.101339	317.572306	669.684702	-78.323664	331.246839	583.686580	-94.568959	301.680240	501.451016	-94.604098	355.289278	584.143031	-126.088659	279.572571	367.762950	-105.831151	219.962369	338.162533	-152.597904	506.965381	344.617638	-150.884462	442.279995	308.405461	-80.870015	77.808772	984.359934	-497.719402	156.434573	950.042839	-496.787776	180.357074	977.498915	-488.634369	209.132372	877.020682	-495.356561	301.130435	778.195628	-474.125823	321.816979	773.405001	-345.690203	-6.776438	484.894440	-417.540088	-74.952219	464.782001	-375.040201	91.780393	347.057745	-452.035979	209.639891	693.315632	-482.270547	171.253502	619.590315	-462.186733	97.650261	571.802284	-449.199119	197.041566	601.398768	-438.881812	192.372404	334.090107	-389.081233	-217.110000	948.810892	-256.652135	-18.045130	80.849076	-460.725963	-18.019279	80.833211	-61.995284	
253	1.2650	417.708300	1414.631434	-108.486612	409.533525	1418.516521	-417.916857	323.900686	1533.246397	-263.768642	364.058721	1362.812450	-267.052172	561.569398	1180.765912	-53.642650	777.955333	964.054558	-87.147166	532.985442	1152.478601	-490.893227	777.657685	944.259131	-453.423129	-177.330237	1189.489301	-273.033964	44.035740	1221.335196	-463.421619	36.637284	1226.368987	-67.696235	87.794959	1153.639991	-427.514409	75.680567	1163.170893	-101.408636	-151.253652	1273.076865	-216.858008	-140.013899	1263.238598	-310.456713	-3.324648	1083.449823	-42.982206	-36.697405	1078.770667	-477.157678	114.182661	997.033299	-45.214873	197.326711	967.009759	-59.400438	252.362362	900.496234	-74.715783	215.766792	996.737100	-72.712700	337.079545	831.870214	-95.600106	340.722023	812.310342	-221.960386	317.728065	669.931315	-78.297013	331.371614	583.971623	-94.513380	301.807055	501.771296	-94.569342	355.406153	584.364117	-126.048733	279.672589	368.116216	-105.823883	220.027325	338.701644	-152.636696	507.047991	344.822222	-150.894978	442.281399	308.731527	-80.874101	77.764405	984.385224	-497.713121	156.362948	950.015711	-496.742916	180.281132	977.441645	-488.586750	208.999980	876.939669	-495.291360	300.855832	778.034648	-474.116794	321.535091	773.261202	-345.725616	-6.909895	484.613479	-417.562516	-75.056278	464.466288	-375.078088	91.693477	346.847396	-452.051121	209.466023	693.075049	-482.247631	171.101283	619.352187	-462.213140	97.510484	571.600906	-449.205768	196.862939	601.204237	-438.832161	192.336207	333.844839	-389.080803	-217.100605	948.809394	-256.643999	-18.047538	80.836335	-460.728109	-18.025165	80.830943	-62.004645	
